<svg version="1.1" id="Слой_1" xmlns="http://www.w3.org/2000/svg" xmlns:xlink="http://www.w3.org/1999/xlink" x="0px" y="0px"
	 viewBox="0 0 203 74" style="enable-background:new 0 0 203 74;" xml:space="preserve">
<style type="text/css">
	.st0{fill:none;stroke:#000000;stroke-width:3;stroke-miterlimit:10;}
</style>
<g>
	<g>
		<g>
			<path d="M200.3,15.88c0.48,3.12-0.45,6.25-0.94,9.32c-1.2,6.01-2.95,11.86-4.75,17.71c-2.8,9-6.78,20.18-17.32,22.34
				c-5.3,1.08-10.08-0.98-14.46-3.42c-6.18-3.08-13.75-3.5-20.14-1.05c-3.46,1.24-5.82,3.56-8.18,6.2
				c-4.25,4.13-10.13,6.38-15.97,6.78c-4.17,0.2-11.57-0.03-13.02-5.13c-0.5-2.53,1.47-4.59,3.48-5.72
				c4.76-2.65,9.95-5.2,14.82-7.66c0.96-0.54,2.29-0.95,2.98-1.74c0.95-1.03-0.38-2.67-1.04-2.8c-2.33-0.19-6.41-0.2-8.82-0.27
				c-25.33-0.37-51.92-0.46-77.29-0.03c-0.74,0.02-3.32,0.1-4.16,0.19c0.08-0.02-0.18,0.05,0.18-0.06c0.33-0.11,0.66-0.36,0.87-0.64
				c0.2-0.3,0.05-0.08,0.1-0.14c0,0,0,0.01,0,0.01c-1.83,4.09-6.9,2.89-10.23,1.94c-5.86-1.36-11.95-2.23-17.86-3.81
				c-2.41-0.8-6.51-1.41-6.97-4.69c0,0-0.44-2.23-0.44-2.23s-0.38-1.94-0.38-1.94l1.95-0.28c7.31-1.01,14.88-1.81,22.28-1.83
				c0.8-0.03,2.42,0,3.22,0.03c-7.64,2.57-16.86,3.83-25.02,5.14c0,0,1.25-1.78,1.25-1.78s0.45,2.23,0.45,2.23l0.11,0.53
				C5,42.99,4.94,42.9,4.91,42.86c1.2,0.88,2.89,1.27,4.51,1.74c5.85,1.52,11.83,2.35,17.79,3.7c1.27,0.3,2.94,0.8,4.18,0.82
				c0.87-0.01,1.38,0.02,1.81-0.51c0.22-0.33,0.28-0.57,0.57-0.93c0.15-0.25,0.73-0.54,0.95-0.55c0.93-0.15,1.67-0.16,2.51-0.21
				c23.1-0.66,47.56-0.61,70.64-0.55c5.34,0.1,13.06,0,18.35,0.41c5.5,1.15,6.63,8.48,1.38,10.9c-1.35,0.68-4.75,2.33-6.15,3.04
				c-3.79,2.02-8.31,3.86-11.74,6.25c-2.09,1.74,2.92,2.87,4.26,3.02c7.15,0.9,14.91-1.56,19.61-7.15
				c6.53-7.07,17.49-8.48,26.35-5.72c2.59,0.78,5.01,2.05,7.36,3.34c0,0,1,0.46,1,0.46c5.36,2.55,11.8,1.5,15.74-3.06
				c4.04-4.31,6.11-10.35,8.1-15.84c2.05-5.7,4.04-11.43,5.71-17.25c0.73-2.78,1.64-5.58,1.75-8.47c0.01-0.07-0.03-0.19,0-0.14
				C199.59,16.17,200.3,15.88,200.3,15.88L200.3,15.88z"/>
		</g>
		<circle class="st0" cx="26.54" cy="55.45" r="0.5"/>
		<circle class="st0" cx="21.27" cy="54.35" r="0.5"/>
		<circle class="st0" cx="10.73" cy="52.15" r="0.5"/>
		<circle class="st0" cx="16" cy="53.25" r="0.5"/>
		<circle class="st0" cx="5.45" cy="51.05" r="0.5"/>
	</g>
	<g>
		<path d="M61.16,40.63h-2.1c-0.71,0-1.26-0.6-1.2-1.3c0-0.02,0-0.03,0-0.05c0.09-1.07-1.15-1.72-1.97-1.03
			c-2.44,2.04-5.79,3.18-10.87,3.18c-10.29,0-15.47-7.28-15.49-16.73C29.49,13.26,37.28,1.9,51.46,1.9
			c9.61,0,14.57,4.68,15.86,10.51c0.17,0.75-0.42,1.47-1.19,1.47l-3.79,0c-0.53,0-1-0.35-1.15-0.87c-0.99-3.43-4.03-6.29-10.3-6.29
			c-9.46,0-15.06,8.14-15.06,17.63c0,7.23,3.43,12.21,10.76,12.21c8.98,0,11.85-5.64,13.14-11.38l0.14-0.57h-10.2
			c-0.78,0-1.35-0.72-1.18-1.48l0.57-2.45c0.13-0.55,0.61-0.93,1.18-0.93h14.83c0.77,0,1.34,0.71,1.18,1.46l-3.92,18.47
			C62.22,40.23,61.73,40.63,61.16,40.63z"/>
		<path d="M70.94,29.4c0.46,0,0.84,0.32,0.96,0.77c1.12,4.23,4.76,6.62,10.69,6.62c5.08,0,10.02-1.74,10.02-6.64
			c0-3.37-2.07-5.25-9.38-7.06C73.88,20.75,70.5,18.3,70.5,13.04c0-6.13,5.33-11.14,15-11.14c10.98,0,14.53,5.31,15.19,9.67
			c0.09,0.59-0.38,1.12-0.98,1.12h-3.98c-0.45,0-0.84-0.31-0.95-0.74c-0.67-2.58-2.91-5.43-9.75-5.43c-5.12,0-8.26,2.33-8.26,5.77
			c0,3.02,2.08,4.25,9.07,5.92c10.55,2.55,13.02,6.22,13.02,11.21c0,6.96-5.67,12-16.8,12c-9.05,0-14.84-3.5-16.12-10.86
			c-0.11-0.61,0.35-1.17,0.97-1.17H70.94z"/>
		<path d="M101.95,13.42h3.5c0.46,0,0.86-0.32,0.96-0.78l1.54-7.16c0.1-0.45,0.5-0.78,0.96-0.78h3.67c0.63,0,1.09,0.58,0.96,1.19
			l-1.36,6.33c-0.13,0.61,0.33,1.19,0.96,1.19h4.17c0.63,0,1.09,0.58,0.96,1.19l-0.52,2.4c-0.1,0.45-0.5,0.77-0.96,0.77h-5.02
			c-0.46,0-0.87,0.33-0.96,0.78l-2.86,13.54c-0.63,2.92-0.25,4.26,2.58,4.26c0.61,0,1.31-0.03,1.96-0.1
			c0.66-0.06,1.18,0.54,1.05,1.18l-0.48,2.26c-0.08,0.36-0.34,0.66-0.69,0.75c-1.22,0.31-2.7,0.42-4.17,0.42
			c-5.66,0-7.18-2.85-6.12-7.96l2.97-13.95c0.13-0.61-0.34-1.19-0.96-1.19h-2.65c-0.63,0-1.09-0.58-0.96-1.19l0.52-2.4
			C101.09,13.74,101.49,13.42,101.95,13.42z"/>
		<path d="M119.23,21.43c0.5-2.4,1.06-4.95,1.46-7.2c0.08-0.47,0.49-0.81,0.97-0.81h3.47c0.6,0,1.06,0.53,0.97,1.13
			c-0.03,0.21-0.07,0.44-0.11,0.69c-0.16,0.94,0.98,1.52,1.66,0.85c1.97-1.94,4.36-2.94,7.11-3.17c0.67-0.06,1.21,0.56,1.05,1.21
			l-0.88,3.68c-0.1,0.43-0.48,0.72-0.92,0.75c-5.67,0.33-9.39,4.09-10.94,11.58l-2.03,9.71c-0.1,0.46-0.5,0.78-0.96,0.78h-3.69
			c-0.62,0-1.09-0.58-0.96-1.19L119.23,21.43z"/>
		<path d="M139.33,13.42h3.65c0.62,0,1.09,0.58,0.96,1.19l-5.35,25.24c-0.1,0.45-0.5,0.78-0.96,0.78h-3.65
			c-0.62,0-1.09-0.58-0.96-1.19l5.35-25.24C138.46,13.74,138.86,13.42,139.33,13.42z M143.48,0.5L143.48,0.5
			c1.76,0,3.08,1.62,2.72,3.35l-0.16,0.76c-0.27,1.29-1.4,2.21-2.72,2.21h0c-1.76,0-3.08-1.62-2.72-3.35l0.16-0.76
			C141.03,1.42,142.17,0.5,143.48,0.5z"/>
		<path d="M144.97,20.28c0.42-2,0.86-4.21,1.21-6.06c0.09-0.46,0.49-0.8,0.97-0.8h3.6c0.6,0,1.06,0.53,0.97,1.13
			c0,0.02,0,0.03-0.01,0.05c-0.14,0.92,0.94,1.48,1.64,0.87c1.76-1.54,4.27-2.79,7.92-2.79c5.99,0,9.95,3.35,8.15,11.93l-3.25,15.25
			c-0.1,0.45-0.5,0.78-0.96,0.78h-3.67c-0.62,0-1.09-0.57-0.96-1.18l3.07-14.65c0.88-4.14,0.11-7.35-4.8-7.35
			c-5.34,0-8.58,4.34-9.89,10.5l-2.47,11.91c-0.09,0.46-0.5,0.78-0.96,0.78h-3.64c-0.62,0-1.09-0.58-0.96-1.19L144.97,20.28z"/>
		<path d="M179,62c8-4,10.97-17.58,12.48-24.06l0.37-1.56c-1.89,2.56-4.59,4.57-9.96,4.57c-6.58,0-10.88-4.39-10.88-11.74
			c0-8.41,6.02-16.54,15.35-16.54c4.11,0,6.8,1.4,8.26,3.11c0.5,0.59,1.46,0.34,1.67-0.4c0.13-0.47,0.27-0.91,0.38-1.28
			c0.13-0.41,0.51-0.69,0.94-0.69h3.57c0.63,0,1.1,0.59,0.96,1.21c-0.44,1.87-0.93,3.93-1.34,5.87l-3.65,17.17
			C195.07,47.47,189,62,177,65 M176.97,28.83c0,4.66,2.37,7.5,6.87,7.5c5.66,0,8.93-3.78,10-8.86c1.22-5.8-0.83-10.14-6.98-10.14
			C180.78,17.33,176.97,22.72,176.97,28.83z"/>
	</g>
</g>
</svg>
